<svg width="30" height="58" viewBox="0 0 30 58" fill="none" xmlns="http://www.w3.org/2000/svg">
<g opacity="0.47">
<path d="M16.2964 56.7977C16.2964 56.7977 16.5363 53.0343 16.4326 49.114C16.3288 45.1938 16.1538 40.8554 16.1538 40.8554C16.1538 40.8554 16.1084 39.8557 16.5881 39.5421C17.2947 39.0782 17.191 38.8169 17.191 38.8169C17.191 38.8169 16.802 39.3918 16.0566 38.8822C15.3111 38.3726 15.0518 38.7842 15.363 39.1174C15.6741 39.4506 15.9399 45.2787 15.9593 47.1409C15.9788 49.003 15.7714 55.1185 15.5315 55.9091C15.2917 56.6997 14.3971 57.0003 15.4797 57.6667C16.5622 58.3331 17.567 57.9607 16.2964 56.7977Z" fill="white"/>
<path d="M16.4196 38.5295C16.4196 38.5295 15.9982 38.5883 15.4926 38.0394C14.987 37.4906 15.162 37.373 15.551 36.9156C15.9399 36.4583 15.9982 27.2653 15.9464 25.5208C15.8945 23.7763 16.1538 20.8492 15.5769 15.2432C15.4926 14.4396 15.2722 13.8973 15.1685 13.4464C14.4036 10.2514 15.363 12.2442 15.8362 12.1985C16.3742 12.1462 16.653 11.8979 16.653 11.8979C16.653 11.8979 16.5557 13.2373 16.0436 13.1393C15.5315 13.0413 16.4844 14.1978 16.4455 25.3117C16.4066 37.4318 16.9835 38.4249 16.4261 38.5229L16.4196 38.5295Z" fill="white"/>
<path d="M15.4214 13.3745L9.41877 9.67642C9.41877 9.67642 9.36691 9.65029 9.34098 9.63722C9.07521 9.51308 7.51298 8.7813 6.7351 8.81397C5.88592 8.84664 -0.00646973 8.40234 -0.00646973 8.40234C-0.00646973 8.40234 4.95248 10.1338 5.78869 10.0292C6.6249 9.92471 8.37512 10.271 9.41877 9.82017C9.41877 9.82017 14.5787 13.0021 14.9482 13.2765C15.3176 13.5509 15.8492 14.4526 15.4214 13.3745Z" fill="white"/>
<path d="M11.3959 10.9048C11.3959 10.9048 10.4365 5.76276 9.17892 3.93984C7.92136 2.11693 6.64435 0 6.64435 0C6.64435 0 7.8695 2.55469 8.18713 2.98592C8.50476 3.41715 8.66682 4.73043 9.08169 5.3446C9.49655 5.95877 10.5596 9.90515 11.3959 10.9048Z" fill="white"/>
<path d="M16.6789 37.9805L20.5423 35.844C20.5423 35.844 20.5942 35.8178 20.6201 35.8048C20.8924 35.6872 22.4805 35.0273 23.2519 35.0861C24.1011 35.1514 30.0065 34.9358 30.0065 34.9358C30.0065 34.9358 24.9827 36.4647 24.153 36.334C23.3232 36.2033 21.5536 36.4712 20.5358 35.9812C20.5358 35.9812 17.5346 37.6408 17.1521 37.9021C16.7696 38.1635 16.2057 39.0455 16.6724 37.987L16.6789 37.9805Z" fill="white"/>
<path d="M19.2783 36.6672C19.2783 36.6672 20.4387 31.5644 21.7675 29.7937C23.0964 28.0231 24.4577 25.9519 24.4577 25.9519C24.4577 25.9519 23.1353 28.4543 22.7982 28.8725C22.4611 29.2906 22.2472 30.5974 21.8129 31.1985C21.3786 31.7996 20.1534 35.7002 19.2848 36.6607L19.2783 36.6672Z" fill="white"/>
<path d="M6.77394 24.8412C6.77394 24.8412 6.95545 25.1025 8.42044 25.7559C11.1171 26.945 14.086 28.291 14.086 28.291C14.086 28.291 14.7666 28.6046 15.1231 28.3759C15.6482 28.0362 15.6741 28.1864 15.6741 28.1864C15.6741 28.1864 15.4148 28.2453 15.5574 28.8856C15.7 29.5259 15.2139 29.6173 15.0648 29.3103C14.9157 29.0032 10.942 27.1737 9.65208 26.6314C8.3621 26.0891 7.78518 25.671 7.16936 25.6056C6.55354 25.5403 6.3137 26.0238 6.15813 25.1091C6.00255 24.1943 6.59244 24.4687 6.76746 24.8412H6.77394Z" fill="white"/>
</g>
</svg>
