<?xml version="1.0" encoding="UTF-8"?>
<svg id="Layer_2" data-name="Layer 2" xmlns="http://www.w3.org/2000/svg" viewBox="0 0 789.19 287.26">
  <defs>
    <style>
      .cls-1 {
        fill: #fefefe;
        stroke-width: 0px;
      }
    </style>
  </defs>
  <g id="Capa_1" data-name="Capa 1">
    <g>
      <g>
        <g>
          <path class="cls-1" d="m179.34,94.54c19.46-8.35,30.59-22.25,30.59-44.48,0-30.59-23.65-50.05-63.96-50.05H59.94s-.16,5.55-.16,8.34c9.73,0,12.49,8.34,12.49,13.9v70.17c11.12,4.17,23.29,24.93,18.57,34.37-1.08,2.19-3.17,2.59-7.39,4.24-6.87,2.57-7.72,3-11.16,4.29,0,40.32-.02,73.28-.02,73.28,0,0,52.84-4.61,52.84-55.68v-54.21h15.31c19.46,0,34.74,19.46,34.74,52.84s-26.4,68.11-76.45,68.11c-27.79,0-55.63-16.69-55.63-51.44s33.38-43.09,40.32-44.49c2.79-1.39,0-26.42-30.59-26.42S0,125.12,0,157.09c0,43.11,41.67,70.91,98.7,70.91,84.79,0,129.29-26.4,129.29-70.91,0-31.97-18.07-54.21-48.65-62.55h0Zm-41.71-4.16h-12.52V9.73h12.52c15.27,0,30.59,15.3,30.59,40.32,0,20.86-15.32,40.32-30.59,40.32Z"/>
          <polygon class="cls-1" points="69.74 46.48 127.63 46.48 127.63 53.61 69.74 53.61 69.74 48.39 69.74 46.48"/>
          <path class="cls-1" d="m72.26,41.93s.36,4.61,3.86,4.61,0,2.11,0,2.11c0,0-6.8,1.73-5.93-1.28s.34-5.05,2.07-5.44Z"/>
          <path class="cls-1" d="m72.26,58.17s.36-4.61,3.86-4.61,0-2.11,0-2.11c0,0-6.8-1.73-5.93,1.28s.34,5.05,2.07,5.44Z"/>
          <path class="cls-1" d="m125.24,41.93s-.36,4.61-3.86,4.61,0,2.11,0,2.11c0,0,6.8,1.73,5.93-1.28-.87-3.01-.34-5.05-2.07-5.44Z"/>
          <path class="cls-1" d="m125.24,58.17s-.36-4.61-3.86-4.61c-3.5,0,0-2.11,0-2.11,0,0,6.8-1.73,5.93,1.28-.87,3.01-.34,5.05-2.07,5.44Z"/>
        </g>
        <path class="cls-1" d="m337.89,184.48v-78.11c0-21.88-13.53-46.87-70.83-46.87-34.36,0-61.43,12.5-61.43,33.33,0,13.54,13.54,21.87,27.07,21.87s19.78-8.33,19.78-11.46c0-2.08-5.2-2.08-5.2-13.54,0-17.7,15.63-22.91,20.83-22.91,16.67,0,18.76,12.5,18.76,27.08,0,37.49-90.61,20.83-90.61,73.95,0,26.04,15.63,39.58,43.74,39.58,22.92,0,37.5-16.66,46.87-29.16v29.16h63.52v-5.81c-9.35,0-12.49-10.85-12.49-17.1h0Zm-79.17,5.21c-4.15,0-12.49-4.17-12.49-18.75,0-35.42,28.11-42.71,40.63-59.37v55.2c-7.29,10.41-17.72,22.92-28.14,22.92Z"/>
        <path class="cls-1" d="m493.22,96.21c-6.26-10.28-18.61-17.93-41.6-17.93-13.37,0-27.93,1.22-37.64,18.21-6.06-9.71-18.21-18.21-42.48-18.21-6.06,0-21.87,0-31.55,12.13v-35.58c-1.18-1.17-3.35-3.24-4.88-4.77-9.02,11.03-25.97,13.67-41.59,11.63l-9.39.51c-.01-5.2,0,3.87,0,7.3,8.5,0,6.84,6.05,6.84,12.13,0,31.57-4.06,87.7-4.06,107.13,0,4.86-2.44,12.13-10.94,12.13v7.3h74.92v-7.3c-8.5,0-10.9-6.46-10.9-13.35h0v-44.91c0-44.92,17.4-58.28,23.46-58.28,12.15,0,10.53,8.58,10.53,24.27,0,16.8,1.22,54.64,1.22,78.91h0c0,4.85-2.44,13.35-10.94,13.35v7.3h66.76v-7.3c-8.5,0-10.94-7.28-10.94-13.35v-54.62h0c0-44.92,18.58-48.56,23.43-48.56,12.15,0,10.59,10.92,10.59,24.27v92.26h0c0,58.28,46.11,86.38,97.12,86.38,32.26,0,66.76-8.8,66.76-34.17,0-13.37-8.5-21.87-21.87-21.87h0c-9.68,0-19.4,8.5-19.4,20.65,0,3.64,1.16,8.38,4.17,11.7-4.36,7.48-18.46,13.3-35.61,12.05-23.02-1.67-46.29-22.53-46.29-74.75v-81.32c0-7.93-1.41-16.26-5.73-23.35"/>
        <path class="cls-1" d="m781.3,196.03v-95.38c-1.36-1.36-4.47-4.48-6.06-6.08-9.02,8.15-23.51,13.51-36.41,13.26h-13.33v6.17c7.28,0,10.9,3.02,10.9,20.23v35.1c0,47.24-15.59,50.23-20.61,50.23-12.15,0-14.58-13.82-14.58-25.97v-82.81c0-26.7-30.32-41.27-55.8-41.27s-45.98,13.38-45.98,30.37c0,14.57,5.92,24.24,18.06,23.03,9.71-1.2,14.14-4.99,15.36-14.7,1.22-6.06-7.24-15.9-10.89-19.54,0-1.22,8.49-9.72,17.87-7.87,5.94,1.18,16.51,6.92,16.51,19.06v82.81c0,19.42,9.68,44.9,48.52,44.9,10.59,0,22.27-2.39,31.54-15.79v14.97c1.72,1.72,3.65,3.65,4.87,4.87,5.35-12.93,23.99-23.46,43.57-23.41l4.35.37v-7.74c-6.12,0-7.89-1.84-7.89-4.83h0Z"/>
        <path class="cls-1" d="m686.92,121.08c34.97-32.23,44.34-11.65,72.38-27.13,24.62-13.59,18.35-31.66,11.51-37.88-7.21-6.56-17.49-7.15-25.24-4.38,15.55,8.09,7.49,20.87.94,27.33-17.69,17.46-39.87,9.27-56.95,27.76-2.89,3.13-6.65,1.47-8.33,3.29,0,0,0,0,0,0-2.11,2.29-3.24,4.28-4.41,6.56,0-.07.02-.14.03-.21-1.44,3.13-2.86,7.6-3.63,13.91,2.23-1.63,3.32-2.43,3.88-2.84-.36-3.99,6.29-3.15,9.83-6.41Z"/>
        <path class="cls-1" d="m556.14,178.65v-92.26C556.14,19.93,510.03,0,459.02,0c-32.26,0-66.76,7.03-66.76,34.17,0,13.37,8.5,21.87,21.87,21.87,9.68,0,19.4-8.5,19.4-20.65,0-3.64-1.16-8.38-4.17-11.7,4.36-7.48,17.04-14.72,34.18-13.47,23.02,1.67,47.71,17.21,47.71,76.17v81.1c0,24.55,15.54,34.64,46.05,34.64l.4-4.09c-2.09-4.44-1.56-11.48-1.56-19.39Z"/>
        <path class="cls-1" d="m591.26,78.48c-6.95,0-15.57.02-23.35,3.6-12.46,6.99-21.33,27.03-21.33,27.03,0,0-11.14-14.58-14.75,21.13-3.15,31.12,14.67,60.81,20.35,69.03,0-.05,4.11,4.23,4.11,4.17.39.64-1.39.2-.9.9,2.1,2.89,5.3,6.51,9.81,9.12,5.94,3.7,12.38,7.27,22.05,7.27,32.26,0,56.5-27.91,56.5-71.79,0-23.93-9.42-70.47-52.48-70.47Zm-15.49,129.88c-9.66,0-19.47-18.94-19.47-59.41,0-54.51,14.51-61.45,19.91-61.45,13.43,0,17.75,30.61,17.75,62.77,0,35.46-9.12,58.09-18.2,58.09Z"/>
      </g>
      <path class="cls-1" d="m511.25,179.41c0-2.71,0-5.57,0-8.55h45.91c0,31.9.02,56.95.02,56.95,0,0-45.93-4.01-45.93-48.39Z"/>
    </g>
  </g>
</svg>