<svg width="464" height="830" viewBox="0 0 464 830" fill="none" xmlns="http://www.w3.org/2000/svg">
<g clip-path="url(#clip0_4_66)">
<path d="M370.919 290.857C356.921 272.212 343.338 257.97 335.667 249.971C323.241 237.031 312.014 226.654 303.227 218.944C301.821 252.306 300.415 285.69 298.989 319.052C304.695 327.258 312.903 338.958 322.972 352.89C342.738 380.258 352.621 393.942 362.462 405.063C374.186 418.333 392.215 435.883 418.886 452.998C428.769 438.901 438.631 424.803 448.493 410.706C426.887 380.547 411.133 355.288 400.547 337.387C390.498 320.416 384.213 308.551 370.939 290.857H370.919Z" fill="#F8F8F8"/>
<path d="M304.447 284.325L300.167 290.961C299.774 300.324 299.381 309.688 298.989 319.031C304.695 327.238 312.903 338.937 322.972 352.869C342.738 380.237 352.621 393.921 362.462 405.042C371.622 415.419 384.668 428.4 402.656 441.753C382.518 401.632 336.349 325.646 304.468 284.305L304.447 284.325Z" fill="#E4DBE3"/>
<path d="M25.5136 740.838L7.69128 1177.55H121.138L145.452 900.87L164.887 717.79L182.71 909.014L184.343 1177.55H307.507V930.719V515.692L38.4978 495.352L25.5136 740.838Z" fill="#3E3937"/>
<path d="M221.786 509.223L38.1256 502.112L36.5129 532.456C36.5129 532.456 59.256 543.164 79.2286 546.657V620.266L245.935 603.832L243.289 548.559C243.289 548.559 292.476 549.386 307.486 535.309V515.713L221.786 509.223Z" fill="#332F2E"/>
<path d="M304.116 340.074C305.191 288.646 303.992 247.015 302.772 219.357C294.213 211.482 281.001 200.836 262.931 191.886C261.339 191.08 259.685 190.294 258.01 189.53C223.172 173.592 192.344 173.53 177.892 173.675C151.593 173.965 131.972 179.339 125.418 181.282C125.294 181.323 125.17 181.365 125.046 181.385C111.565 185.395 99.9455 190.563 90.2073 195.813C83.5291 198.583 76.5614 202.717 69.9453 207.823C69.7385 210.097 44.8865 469.762 33.1429 504.448C31.6542 512.282 30.1242 520.013 28.5942 527.661C66.1823 538.658 120.993 550.047 187.382 548.001C238.968 546.409 282.386 537.19 314.909 527.661C305.129 474.041 302.917 430.364 302.772 399.751C302.69 379.328 303.537 368.414 304.116 340.074Z" fill="#08EAA2"/>
<path d="M196.252 207.823H222.034L205.763 190.191C202.599 196.062 199.436 201.953 196.273 207.823H196.252Z" fill="white"/>
<path d="M207.21 188.847C206.776 188.372 206.156 188.145 205.494 188.227C204.853 188.31 204.295 188.682 203.985 189.261L194.495 206.893C194.164 207.513 194.184 208.257 194.536 208.857C194.887 209.456 195.549 209.828 196.231 209.828H222.014C222.799 209.828 223.523 209.353 223.833 208.629C224.143 207.906 223.999 207.058 223.482 206.48L207.21 188.847ZM199.581 205.839L206.176 193.581L217.486 205.839H199.581Z" fill="#252362"/>
<path d="M283.999 254.477C283.172 255.097 283.006 256.234 283.627 257.061C287.018 262.642 286.108 349.893 283.296 371.018C283.151 372.031 283.875 372.961 284.888 373.106C284.971 373.106 285.053 373.106 285.136 373.106C286.046 373.106 286.852 372.424 286.976 371.494C289.271 354.275 291.608 261.505 286.625 254.849C286.004 254.022 284.847 253.857 284.02 254.456L283.999 254.477Z" fill="#17BC89"/>
<path d="M285.115 387.038C284.102 387.038 283.255 387.865 283.255 388.898V406.531C283.255 407.543 284.082 408.391 285.115 408.391C286.149 408.391 286.976 407.564 286.976 406.531V388.898C286.976 387.886 286.149 387.038 285.115 387.038Z" fill="#252362"/>
<path d="M109.187 381.664C108.195 381.436 107.203 382.036 106.954 383.049C106.768 383.793 89.1321 457.401 62.7088 482.495C61.9645 483.198 61.9438 484.376 62.6468 485.12C63.019 485.513 63.4945 485.699 63.9907 485.699C64.4456 485.699 64.9004 485.534 65.2726 485.182C92.5023 459.323 109.849 386.976 110.573 383.896C110.8 382.904 110.201 381.912 109.187 381.664Z" fill="#17BC89"/>
<path d="M135.983 481.979C135.011 481.979 134.205 482.743 134.143 483.715C133.729 485.844 129.594 494.815 125.335 502.567C122.316 498.66 119.815 498.226 118.14 498.701C114.666 499.693 113.095 504.82 113.591 513.543C113.819 517.677 115.617 518.483 117.023 518.442C118.037 518.421 120.145 518.359 125.397 509.843C126.1 511.6 126.121 513.15 125.459 514.535C123.702 518.256 117.375 520.219 115.101 520.653C114.087 520.839 113.447 521.811 113.633 522.824C113.798 523.713 114.584 524.333 115.452 524.333C115.576 524.333 115.68 524.333 115.804 524.291C116.217 524.209 125.893 522.307 128.829 516.127C130.173 513.295 129.904 510.132 128.043 506.742C127.919 506.494 127.775 506.267 127.651 506.039C128.374 504.758 129.139 503.352 129.946 501.802C132.633 496.696 137.864 485.844 137.864 483.818C137.864 482.805 137.037 481.958 136.004 481.958L135.983 481.979ZM117.396 514.411C117.354 514.163 117.313 513.811 117.272 513.336C116.796 504.861 118.512 502.443 119.153 502.256C119.194 502.256 119.215 502.256 119.256 502.256C119.794 502.256 121.241 502.98 123.329 506.122C120.993 510.111 118.802 513.357 117.396 514.432V514.411ZM134.143 483.818C134.143 483.818 134.143 483.756 134.143 483.736C134.143 483.777 134.143 483.798 134.143 483.818Z" fill="#252362"/>
<path d="M277.341 484.294C280.567 477.824 280.071 466.703 276.535 462.527C274.55 460.192 271.759 459.985 269.092 461.99C266.693 463.788 265.432 466.145 265.329 469.018C265.143 474.144 268.926 480.035 272.689 484.562C270.849 486.34 268.161 485.617 264.709 482.433C263.964 481.73 262.786 481.793 262.083 482.537C261.38 483.281 261.442 484.459 262.186 485.162C268.844 491.301 273.124 489.213 275.15 487.332C277.61 489.999 279.636 491.776 279.864 491.962C280.215 492.273 280.649 492.417 281.084 492.417C281.601 492.417 282.117 492.211 282.469 491.776C283.151 491.012 283.069 489.833 282.304 489.172C281.104 488.118 279.285 486.361 277.362 484.252L277.341 484.294ZM274.674 481.152C271.573 477.224 268.885 472.718 269.009 469.163C269.071 467.447 269.836 466.062 271.304 464.946C271.924 464.491 272.379 464.326 272.71 464.326C273.186 464.326 273.454 464.636 273.703 464.925C276.06 467.716 276.494 475.922 274.674 481.152Z" fill="#17BC89"/>
<path d="M240.952 541.51C239.857 541.572 239.009 542.502 239.071 543.598C239.34 548.952 266.053 1080.97 256.004 1177.36C255.88 1178.46 256.687 1179.43 257.782 1179.55C257.844 1179.55 257.927 1179.55 257.989 1179.55C259.002 1179.55 259.85 1178.79 259.953 1177.77C270.022 1081.1 243.31 548.766 243.041 543.391C242.979 542.296 242.069 541.428 240.952 541.51Z" fill="#332F2E"/>
<path d="M102.53 541.489C101.434 541.489 100.545 542.378 100.545 543.474C100.545 548.394 99.1391 1036.66 84.3975 1177.34C84.2734 1178.44 85.0798 1179.41 86.1756 1179.53C86.2376 1179.53 86.3203 1179.53 86.3823 1179.53C87.3954 1179.53 88.2431 1178.77 88.3465 1177.75C103.109 1036.88 104.494 548.394 104.515 543.474C104.515 542.378 103.626 541.489 102.53 541.489Z" fill="#332F2E"/>
<path d="M287.183 596.453H287.162C286.066 596.453 285.198 597.321 285.177 598.417C285.177 599.595 283.813 716.694 283.813 739.494C283.813 740.59 284.702 741.478 285.798 741.478C286.893 741.478 287.783 740.59 287.783 739.494C287.783 716.715 289.126 599.636 289.147 598.458C289.147 597.362 288.279 596.453 287.183 596.453Z" fill="#332F2E"/>
<path d="M287.162 756.485C286.066 756.485 285.177 757.374 285.177 758.47V778.81C285.177 779.905 286.066 780.794 287.162 780.794C288.258 780.794 289.147 779.905 289.147 778.81V758.47C289.147 757.374 288.258 756.485 287.162 756.485Z" fill="#332F2E"/>
<path d="M44.3283 698.173C43.2325 698.173 42.3434 699.062 42.3434 700.158V795.098C42.3434 796.194 43.2325 797.083 44.3283 797.083C45.4241 797.083 46.3131 796.194 46.3131 795.098V700.158C46.3131 699.062 45.4241 698.173 44.3283 698.173Z" fill="#332F2E"/>
<path d="M44.3283 812.09C43.2325 812.09 42.3434 812.978 42.3434 814.074V842.558C42.3434 843.654 43.2325 844.543 44.3283 844.543C45.4241 844.543 46.3131 843.654 46.3131 842.558V814.074C46.3131 812.978 45.4241 812.09 44.3283 812.09Z" fill="#332F2E"/>
<path d="M177.871 173.675C151.572 173.965 131.951 179.339 125.397 181.282C133.647 210.014 147.23 246.436 170.242 285.214C186.555 312.727 203.923 335.175 219.595 352.89C229.726 333.956 240.766 309.358 249.202 279.571C258.837 245.547 262.104 215.285 262.889 191.886C261.731 191.307 260.036 190.48 257.968 189.53C223.13 173.592 192.303 173.53 177.851 173.675H177.871Z" fill="#F8F8F8"/>
<path d="M136.107 178.491C146.776 217.352 174.357 244.162 215.356 225.6C256.356 207.038 237.252 181.613 237.252 181.613L136.107 178.491Z" fill="#E4DBE3"/>
<path d="M213.247 78.6313C200.036 71.3139 180.146 77.0397 170.945 94.1343C165.28 125.781 159.636 157.449 153.971 189.096C161.579 205.818 176.383 215.244 190.835 212.887C206.9 210.262 215.253 194.263 216.39 192.01C220.05 164.084 223.688 136.158 227.348 108.252C228.34 95.7053 222.799 83.923 213.247 78.652V78.6313Z" fill="#F9BBB0"/>
<path d="M202.062 60.8545C202.062 60.8545 167.927 157.49 219.76 164.973C271.614 172.435 275.336 49.6923 275.336 49.6923C275.336 49.6923 205.101 4.23749 202.041 60.8545H202.062Z" fill="#F9BBB0"/>
<path d="M293.53 15.3997C281.249 10.9761 275.088 19.6785 258.982 14.9449C249.409 12.1337 250.649 8.78506 239.795 4.3822C220.463 -3.45199 202.083 1.30226 196.996 2.79055C190.98 4.56823 180.063 7.79286 171.814 17.6941C171.814 17.6941 166.831 23.668 164.019 32.267C155.273 59.0562 163.026 134.07 163.378 137.336C164.288 135.765 165.611 133.45 167.141 130.618C177.396 111.539 176.92 105.483 182.213 97.669C192.179 82.9722 210.766 79.6649 212.792 79.1481C232.062 74.1665 237.376 86.2381 272.483 80.9878C285.508 79.0447 294.006 80.6364 301.739 74.8072C310.278 68.358 315.591 57.0718 314.867 45.5375C314.02 31.6675 304.571 19.3891 293.51 15.3997H293.53Z" fill="#3E3937"/>
<path d="M214.054 182.564C215.232 182.894 216.39 183.184 217.506 183.452C218.706 174.275 219.905 165.097 221.104 155.919L179.608 136.303C175.701 151.247 177.934 172.58 214.033 182.584L214.054 182.564Z" fill="#FB9A8D"/>
<path d="M191.869 4.42352C185.852 6.53193 178.058 10.1906 171.814 17.6941C171.814 17.6941 166.831 23.6679 164.019 32.2669C155.273 59.0562 163.026 134.07 163.378 137.336C164.288 135.765 165.611 133.45 167.141 130.618C177.396 111.539 176.92 105.483 182.213 97.669C182.379 97.4416 182.544 97.2349 182.71 97.0075V92.336C182.71 92.336 181.903 78.8794 176.92 68.668C171.938 58.4567 169.498 14.8002 191.848 4.42352H191.869Z" fill="#302C2B"/>
<path d="M178.823 66.4149C167.885 76.6263 181.49 99.1573 186.41 102.506C191.331 105.834 194.515 85.2253 194.515 85.2253C194.515 85.2253 189.76 56.2036 178.843 66.4149H178.823Z" fill="#F9BBB0"/>
<path d="M190.711 223.76L213.95 234.447L222.427 207.658L205.494 190.728L190.711 223.76Z" fill="#3E3937"/>
<path d="M214.054 328.643C196.976 322.256 139.229 226.158 126.265 184.197C134.598 212.453 147.995 247.718 170.242 285.194C186.555 312.706 203.923 335.155 219.595 352.869C229.726 333.935 240.766 309.337 249.202 279.55C258.837 245.527 262.104 215.265 262.889 191.865C254.971 253.195 231.524 335.175 214.033 328.643H214.054Z" fill="#E4DBE3"/>
<path d="M94.4044 312.644C97.1542 331.041 110.49 355.701 110.49 355.701C110.49 355.701 261.545 346.854 280.649 354.461C299.754 362.068 246.018 371.535 246.018 371.535L89.5043 381.622L94.4044 312.665V312.644Z" fill="#17BC89"/>
<path d="M205.494 190.728L190.711 223.74L199.333 227.708C204.336 196.723 219.14 213.218 217.961 221.735L222.407 207.658L205.473 190.728H205.494Z" fill="#302C2B"/>
<path d="M199.333 227.708C199.87 263.097 200.387 298.464 200.925 333.852C206.404 354.337 214.426 369.406 221.042 369.096C227.824 368.786 233.695 352.353 235.68 329.615L215.563 223.864L199.333 227.708Z" fill="#3E3937"/>
<path d="M205.763 190.191L219.326 213.239C219.326 213.239 234.833 205.57 237.252 181.613L224.743 157.635C224.743 157.635 217.961 184.755 205.742 190.191H205.763Z" fill="#F8F8F8"/>
<path d="M136.107 178.491C164.143 240.028 198.961 221.383 198.961 221.383L205.742 190.191C177.251 186.119 153.95 162.596 153.95 162.596L136.107 178.491Z" fill="#F8F8F8"/>
<path d="M303.165 373.395L266.487 367.36L47.9465 411.988C46.3545 424.783 44.7831 436.958 43.2325 448.099C68.2085 475.757 99.8007 472.098 285.301 424.08C292.207 422.302 299.774 419.946 303.062 417.321C302.876 411.078 302.772 405.187 302.752 399.751C302.71 389.746 302.896 382.015 303.165 373.395Z" fill="#17BC89"/>
<path d="M244.116 114.412C238.802 116.583 235.949 120.882 229.354 121.709C226.976 121.998 224.205 121.44 220.36 119.373C203.778 110.526 222.407 50.8499 222.407 50.8499L197.141 50.4365C197.141 50.4365 188.437 79.6028 183.557 109.038C179.691 132.313 177.768 143.971 181.138 151.826C191.579 176.114 230.615 188.145 246.742 175.494C251.786 171.525 254.185 164.559 258.94 150.648C263.385 137.625 265.453 126.401 266.466 118.732C255.239 112.201 248.354 112.676 244.095 114.433L244.116 114.412Z" fill="#3E3937"/>
<path d="M292.827 328.871C278.541 327.196 240.146 335.196 240.146 335.196C240.146 335.196 243.206 344.539 249.926 343.733C256.625 342.927 272.069 342.038 280.939 340.157C289.809 338.255 307.135 330.545 292.827 328.871Z" fill="white"/>
<path d="M221.042 369.096C225.921 368.869 230.325 360.27 233.158 346.978C220.339 383.379 205.763 331.765 205.763 331.765L199.333 227.708C199.87 263.097 200.387 298.464 200.925 333.852C206.404 354.337 214.426 369.406 221.042 369.096Z" fill="#302C2B"/>
<path d="M245.646 343.609C244.137 345.8 244.116 348.074 244.157 348.88L314.247 406.903L321.67 397.952C298.306 378.604 274.943 359.277 251.58 339.93C250.98 340.033 247.734 340.612 245.666 343.609H245.646Z" fill="#3E3937"/>
<path d="M314.516 406.861L331.677 413.786L321.939 397.89L314.516 406.861Z" fill="#3E3937"/>
<path d="M223.44 357.603C218.065 358.12 212.689 358.657 207.334 359.174C162.489 362.812 92.3162 368.517 102.096 367.711C94.4044 312.479 86.6924 257.247 79.0011 202.015C72.4883 201.312 53.5909 200.175 35.2724 211.875C19.3109 222.086 12.5707 236.431 8.91112 244.493C0.764969 262.435 -1.50934 278.889 0.971725 291.395C9.73814 335.589 31.0133 431.067 43.3152 438.859C55.8032 446.776 79.2492 447.975 94.8593 447.252C115.328 446.322 148.988 441.609 189.202 420.09C189.202 420.152 189.202 420.235 189.222 420.297C189.905 419.863 190.566 419.408 191.249 418.974C200.098 414.137 209.236 408.515 218.644 401.921C218.644 401.88 218.644 401.859 218.644 401.818C223.13 404.649 223.42 357.562 223.42 357.562L223.44 357.603Z" fill="#F8F8F8"/>
<path d="M102.075 367.711C97.1336 332.24 92.1921 296.769 87.23 261.298C84.7489 306.257 79.5387 369.117 79.5387 369.117L111.71 373.127L111.069 367.008C103.109 367.649 99.2632 367.959 102.075 367.732V367.711Z" fill="#E4DBE3"/>
<path d="M153.412 363.535C122.027 366.078 95.8724 368.207 102.075 367.69C101.868 366.161 101.641 364.631 101.434 363.101L79.5387 369.096C79.5387 369.096 78.1328 412.794 81.4409 447.355C86.2169 447.521 90.8069 447.459 94.8593 447.272C103.915 446.859 115.555 445.701 129.181 442.684L153.412 363.515V363.535Z" fill="#E4DBE3"/>
<path d="M289.147 415.171C300.746 411.864 293.158 399.627 293.158 399.627C300.622 403.761 305.812 401.032 306.969 394.914C308.107 388.795 278.789 370.894 278.789 370.894C278.789 370.894 308.934 385.798 315.054 383.462C321.174 381.126 323.758 376.847 321.773 373.954C320.243 371.7 295.184 360.559 283.978 355.639C280.484 354.11 276.659 353.469 272.855 353.758L223.42 357.603C222.469 357.706 221.497 357.789 220.546 357.892L218.623 401.983C218.623 401.983 218.623 401.921 218.623 401.88C223.11 404.711 254.929 424.349 272.772 424.142C292 423.894 289.126 415.192 289.126 415.192L289.147 415.171Z" fill="#F9BBB0"/>
<path d="M220.546 357.872L218.623 401.962C218.623 401.962 218.623 401.9 218.623 401.859C220.628 403.12 228.03 407.709 237.231 412.401L237.376 356.507L223.399 357.603C222.448 357.706 221.476 357.789 220.525 357.892L220.546 357.872Z" fill="#FB9A8D"/>
<path d="M84.3975 369.303L86.9199 613.423C138.112 608.938 189.284 604.432 240.477 599.946C237.417 517.739 234.357 435.511 231.318 353.303L84.3975 369.303Z" fill="#F8F8F8"/>
<path d="M202.351 425.093C201.276 425.299 200.573 426.354 200.801 427.429C200.904 427.966 211.428 481.214 213.433 524.25C213.475 525.304 214.364 526.152 215.418 526.152C215.439 526.152 215.48 526.152 215.522 526.152C216.617 526.11 217.465 525.18 217.424 524.085C215.398 480.759 204.832 427.201 204.708 426.664C204.502 425.589 203.426 424.886 202.372 425.113L202.351 425.093Z" fill="#E4DBE3"/>
<path d="M280.649 457.236L377.969 481.193L464 378.274L368.086 355.701L280.649 457.236Z" fill="#8F5247"/>
<path d="M464 378.274L372.325 460.626L280.649 457.236L377.969 481.193L464 378.274Z" fill="#7A433C"/>
<path d="M406.15 376.909C397.57 376.103 397.156 380.382 405.86 390.531C414.565 400.66 433.131 415.708 433.131 415.708C433.131 415.708 388.927 382.966 382.394 385.343C375.84 387.72 375.798 395.368 382.456 402.314C382.456 402.314 369.017 403.719 378.073 417.217L407.556 447.252C392.132 438.425 375.385 429.826 372.945 433.03C372.407 433.733 372.676 434.87 373.296 436.379C377.266 446.136 387.108 451.097 399.885 458.228C418.803 468.811 418.721 469.928 421.781 469.535C432.387 468.108 438.9 453.804 447.046 435.883C448.597 432.472 449.961 429.206 451.119 426.147C454.179 418.168 451.801 409.156 445.165 403.781C432.408 393.425 411.898 377.447 406.129 376.909H406.15Z" fill="#F9BBB0"/>
<path d="M266.694 95.4159C268.977 95.4159 270.829 93.565 270.829 91.2818C270.829 88.9986 268.977 87.1476 266.694 87.1476C264.41 87.1476 262.558 88.9986 262.558 91.2818C262.558 93.565 264.41 95.4159 266.694 95.4159Z" fill="#3E3937"/>
<path d="M246.018 93.3488C248.302 93.3488 250.153 91.4979 250.153 89.2147C250.153 86.9315 248.302 85.0806 246.018 85.0806C243.734 85.0806 241.883 86.9315 241.883 89.2147C241.883 91.4979 243.734 93.3488 246.018 93.3488Z" fill="#3E3937"/>
<path d="M255.673 131.404C255.219 131.445 254.743 131.466 254.268 131.424C249.822 131.156 245.584 127.745 243.723 122.908C243.31 121.854 243.847 120.655 244.902 120.241C245.956 119.828 247.155 120.365 247.569 121.42C248.851 124.706 251.704 127.125 254.516 127.29C256.314 127.393 257.762 126.505 258.713 124.727C259.25 123.714 260.491 123.342 261.504 123.879C262.517 124.417 262.889 125.678 262.352 126.67C260.863 129.44 258.485 131.114 255.653 131.404H255.673Z" fill="#F9BBB0"/>
<path d="M262.558 113.73C262.558 113.73 262.517 113.73 262.476 113.73L250.07 113.296C248.933 113.255 248.044 112.304 248.086 111.146C248.127 110.009 249.037 109.121 250.236 109.162L260.119 109.513L256.542 87.4784C256.356 86.3415 257.121 85.2873 258.258 85.1012C259.395 84.9152 260.449 85.68 260.636 86.8169L264.605 111.332C264.709 111.952 264.523 112.573 264.109 113.027C263.716 113.482 263.158 113.73 262.558 113.73Z" fill="#FB9A8D"/>
<path d="M246.762 175.494C247.465 174.936 248.106 174.337 248.727 173.654C218.333 181.613 190.215 161.562 186.08 151.227C181.945 140.891 181.945 118.195 184.653 102.919C184.281 104.945 183.929 106.991 183.578 109.038C179.712 132.313 177.789 143.971 181.159 151.826C191.6 176.114 230.635 188.145 246.762 175.494Z" fill="#302C2B"/>
<path d="M130.359 609.599C157.361 561.54 145.969 481.979 145.969 481.979C145.969 481.979 146.775 585.311 110.614 610.426C110.614 610.426 110.552 610.757 110.49 611.356C117.106 610.778 123.743 610.199 130.359 609.62V609.599Z" fill="#E4DBE3"/>
<path d="M153.412 607.574L169.519 529.48C161.248 560.486 132.675 605.197 132.675 605.197L127.361 609.847C136.045 609.083 144.729 608.318 153.392 607.553L153.412 607.574Z" fill="#E4DBE3"/>
<path d="M399.865 458.228C418.783 468.811 418.7 469.927 421.76 469.535C432.366 468.108 438.879 453.804 447.025 435.883C448.576 432.472 449.941 429.206 451.119 426.147C453.807 419.119 452.298 411.285 447.356 405.848C454.841 424.08 435.55 457.918 422.442 460.646C409.334 463.354 373.276 436.4 373.276 436.4C377.245 446.156 387.087 451.117 399.865 458.249V458.228Z" fill="#FB9A8D"/>
<path d="M164.887 717.79L182.71 909.014L184.343 1177.55H194.681L198.175 904.446L169.519 668.966L164.887 717.79Z" fill="#332F2E"/>
</g>
<defs>
<clipPath id="clip0_4_66">
<rect width="464" height="1263" fill="white"/>
</clipPath>
</defs>
</svg>
